<?xml version="1.0" encoding="UTF-8" standalone="no"?>
<svg
   xmlns:dc="http://purl.org/dc/elements/1.1/"
   xmlns:cc="http://creativecommons.org/ns#"
   xmlns:rdf="http://www.w3.org/1999/02/22-rdf-syntax-ns#"
   xmlns:svg="http://www.w3.org/2000/svg"
   xmlns="http://www.w3.org/2000/svg"
   viewBox="0 0 540.10669 163.28"
   height="163.28"
   width="540.10669"
   xml:space="preserve"
   id="svg2"
   version="1.1"><metadata
     id="metadata8"><rdf:RDF><cc:Work
         rdf:about=""><dc:format>image/svg+xml</dc:format><dc:type
           rdf:resource="http://purl.org/dc/dcmitype/StillImage" /></cc:Work></rdf:RDF></metadata><defs
     id="defs6" /><g
     transform="matrix(1.3333333,0,0,-1.3333333,0,163.28)"
     id="g10"><g
       transform="scale(0.1)"
       id="g12"><path
         id="path14"
         style="fill:#6fb3e6;fill-opacity:1;fill-rule:nonzero;stroke:none"
         d="m 1642.31,1224.37 c -4.96,-0.01 -9.54,-2.65 -12.03,-6.94 L 1467.56,936.484 c -3.25,-5.617 0.8,-12.64 7.29,-12.64 h 2338.1 c 83.77,0 128.72,-58.906 149.53,-100.332 4.13,-8.223 16.46,-5.344 16.46,3.855 v 96.477 0 290.996 c 0,5.36 -4.34,9.71 -9.71,9.71 l -2326.92,-0.18" /><path
         id="path16"
         style="fill:#28307c;fill-opacity:1;fill-rule:nonzero;stroke:none"
         d="M 328.469,652.664 V 517.422 c 0,-2.098 -1.039,-4.192 -2.61,-5.746 -33.421,-28.723 -105.492,-38.649 -141,-38.649 C 95.5664,473.027 0,545.617 0,659.984 c 0,115.918 99.2188,186.954 185.906,186.954 55.875,0 107.578,-21.942 142.039,-63.192 2.614,-3.141 2.614,-7.844 -0.515,-10.969 L 285.125,730.48 c -2.613,-2.621 -8.352,-3.652 -10.965,0.524 -16.711,23.496 -49.609,45.426 -88.254,45.426 -59.008,0 -105.488,-53.27 -105.488,-116.446 0,-61.621 46.48,-116.461 104.441,-116.461 20.895,0 42.305,4.7 60.055,14.102 v 46.473 H 206.27 c -4.7,0 -7.829,3.14 -7.829,7.316 v 41.25 c 0,4.176 3.129,7.32 7.829,7.32 h 114.886 c 4.184,0 7.313,-3.144 7.313,-7.32" /><path
         id="path18"
         style="fill:#28307c;fill-opacity:1;fill-rule:nonzero;stroke:none"
         d="m 628.75,540.395 v -55.364 c 0,-4.176 -3.137,-7.828 -7.312,-7.828 H 445.969 395.32 c -4.183,0 -7.836,3.652 -7.836,7.828 v 349.364 c 0,4.703 3.653,8.355 7.836,8.355 h 65.274 c 4.183,0 7.308,-3.652 7.308,-8.355 V 548.223 h 153.536 c 4.175,0 7.312,-3.653 7.312,-7.828" /><path
         id="path20"
         style="fill:#28307c;fill-opacity:1;fill-rule:nonzero;stroke:none"
         d="M 895.074,595.223 846.508,707.504 798.461,595.223 Z m 120.116,-118.02 h -64.237 c -3.656,0 -5.746,2.098 -6.793,5.227 l -18.277,42.297 H 767.652 l -18.277,-42.825 c -1.047,-2.601 -3.133,-4.699 -6.785,-4.699 h -64.235 c -4.179,0 -9.398,4.699 -6.785,10.973 l 153,354.062 c 1.575,3.129 3.66,4.7 6.797,4.7 h 20.887 9.398 c 3.137,0 6.266,-1.571 7.313,-4.7 L 1022.5,487.652 c 2.09,-5.222 -2.1,-10.449 -7.31,-10.449" /><path
         id="path22"
         style="fill:#28307c;fill-opacity:1;fill-rule:nonzero;stroke:none"
         d="m 1051.74,522.629 c -2.61,2.621 -2.61,7.844 0,10.449 l 40.74,41.785 c 2.61,2.606 7.31,2.606 10.44,0.512 9.92,-7.828 37.08,-27.676 88.26,-27.676 21.92,0 62.14,8.875 62.14,37.074 0,20.895 -17.23,28.723 -68.41,38.645 -103.92,20.371 -135.78,60.59 -135.78,111.238 0,45.438 37.6,112.282 138.91,112.282 70.5,0 110.71,-24.02 137.86,-45.438 3.66,-3.129 3.66,-8.355 0.53,-11.496 l -40.74,-42.82 c -3.13,-2.606 -6.78,-3.129 -9.92,-1.036 -17.23,13.051 -44.91,26.106 -84.59,26.106 -37.61,0 -61.63,-11.481 -61.63,-31.852 0,-21.418 20.37,-32.375 69.98,-42.297 94.52,-17.242 134.21,-51.187 134.21,-113.332 0,-45.949 -36.03,-111.746 -143.09,-111.746 -54.83,0 -101.83,12.528 -138.91,49.602" /><path
         id="path24"
         style="fill:#28307c;fill-opacity:1;fill-rule:nonzero;stroke:none"
         d="m 1380.22,522.629 c -2.61,2.621 -2.61,7.844 0,10.449 l 40.73,41.785 c 2.61,2.606 7.31,2.606 10.45,0.512 9.92,-7.828 37.07,-27.676 88.25,-27.676 21.93,0 62.15,8.875 62.15,37.074 0,20.895 -17.24,28.723 -68.42,38.645 -103.91,20.371 -135.77,60.59 -135.77,111.238 0,45.438 37.6,112.282 138.91,112.282 70.49,0 110.71,-24.02 137.86,-45.438 3.66,-3.129 3.66,-8.355 0.53,-11.496 l -40.74,-42.82 c -3.13,-2.606 -6.79,-3.129 -9.92,-1.036 -17.24,13.051 -44.91,26.106 -84.6,26.106 -37.6,0 -61.62,-11.481 -61.62,-31.852 0,-21.418 20.37,-32.375 69.98,-42.297 94.52,-17.242 134.21,-51.187 134.21,-113.332 0,-45.949 -36.04,-111.746 -143.09,-111.746 -54.83,0 -101.83,12.528 -138.91,49.602" /><path
         id="path26"
         style="fill:#ea1a2d;fill-opacity:1;fill-rule:nonzero;stroke:none"
         d="m 1993.83,659.461 c 0,74.144 -31.33,112.266 -81.98,112.266 h -61.62 V 548.223 h 61.62 c 50.65,0 81.98,39.695 81.98,111.238 z m -79.37,-182.258 h -136.82 c -4.18,0 -7.84,3.652 -7.84,7.828 v 349.891 c 0,4.176 3.66,7.828 7.84,7.828 h 65.28 73.63 c 87.73,-2.082 157.71,-60.051 157.71,-183.289 0,-118.539 -71.55,-181.207 -159.8,-182.258" /><path
         id="path28"
         style="fill:#ea1a2d;fill-opacity:1;fill-rule:nonzero;stroke:none"
         d="m 2406.91,659.461 c 0,63.699 -45.43,115.934 -106.01,115.934 -60.58,0 -106.53,-52.235 -106.53,-115.934 0,-63.719 45.95,-115.414 106.53,-115.414 60.58,0 106.01,51.695 106.01,115.414 z m -292.96,0 c 0,103.391 83.55,187.477 186.95,187.477 102.87,0 186.43,-84.086 186.43,-187.477 0,-102.887 -83.56,-186.434 -186.43,-186.434 -103.4,0 -186.95,83.547 -186.95,186.434" /><path
         id="path30"
         style="fill:#ea1a2d;fill-opacity:1;fill-rule:nonzero;stroke:none"
         d="m 2530.15,659.984 c 0,102.868 83.55,186.954 186.95,186.954 55.88,0 107.06,-23.512 139.95,-64.239 3.14,-3.129 3.14,-7.304 0.53,-10.972 l -42.82,-42.297 c -3.14,-3.653 -8.36,-3.125 -10.97,0.527 -17.76,25.594 -49.61,46.473 -86.69,46.473 -61.1,0 -106.53,-52.746 -106.53,-116.446 0,-63.714 45.43,-116.461 106.53,-116.461 39.69,0 69.97,18.278 92.43,48.047 2.09,3.125 6.79,4.7 11.49,0.524 l 39.69,-39.172 c 3.65,-3.652 3.13,-7.828 0,-10.969 -34.47,-42.82 -85.65,-68.926 -143.61,-68.926 -103.4,0 -186.95,84.071 -186.95,186.957" /><path
         id="path32"
         style="fill:#ea1a2d;fill-opacity:1;fill-rule:nonzero;stroke:none"
         d="M 3181.35,834.395 V 779.57 c 0,-4.175 -3.13,-7.843 -7.31,-7.843 h -95.56 V 485.031 c 0,-4.176 -3.66,-7.828 -7.84,-7.828 h -65.28 c -4.17,0 -7.31,3.652 -7.31,7.828 v 286.696 h -95.56 c -4.18,0 -7.83,3.668 -7.83,7.843 v 54.825 c 0,4.175 3.65,8.355 7.83,8.355 h 118.54 49.61 103.4 c 4.18,0 7.31,-4.18 7.31,-8.355" /><path
         id="path34"
         style="fill:#ea1a2d;fill-opacity:1;fill-rule:nonzero;stroke:none"
         d="m 3495.22,659.461 c 0,63.699 -45.44,115.934 -106.02,115.934 -60.57,0 -106.53,-52.235 -106.53,-115.934 0,-63.719 45.96,-115.414 106.53,-115.414 60.58,0 106.02,51.695 106.02,115.414 z m -292.96,0 c 0,103.391 83.55,187.477 186.94,187.477 102.88,0 186.43,-84.086 186.43,-187.477 0,-102.887 -83.55,-186.434 -186.43,-186.434 -103.39,0 -186.94,83.547 -186.94,186.434" /><path
         id="path36"
         style="fill:#ea1a2d;fill-opacity:1;fill-rule:nonzero;stroke:none"
         d="m 3786.62,679.832 h -84.6 v 91.895 h 83.55 c 39.17,0 39.17,-38.645 39.17,-44.899 0,-39.172 -25.07,-46.996 -38.12,-46.996 z m 191.22,-274.637 -59.28,89.965 56.07,86.449 h -0.03 l 2.75,4.172 c 3.58,6.645 -2.55,10.731 -6.64,10.731 h -62.82 c -4.09,0 -8.68,-3.574 -10.73,-7.657 l -4.74,-7.246 -15.41,-23.394 -37.12,56.328 c 37.07,13.574 65.27,51.187 65.27,112.285 0,71.02 -44.91,115.41 -95.57,115.922 h -114.88 -65.28 c -4.7,0 -7.83,-3.652 -7.83,-7.828 V 484.508 c 0,-4.176 3.13,-7.305 7.83,-7.305 h 65.28 c 4.18,0 7.31,3.129 7.31,7.305 v 123.777 h 60.05 l 73.38,-113.125 -59.28,-89.965 c -3.66,-6.793 2.61,-10.968 6.79,-10.968 h 64.23 c 4.18,0 8.88,3.652 10.97,7.828 l 18.85,29.05 18.84,-29.05 c 2.1,-4.176 6.79,-7.828 10.97,-7.828 h 64.23 c 4.18,0 10.45,4.175 6.79,10.968" /><path
         id="path38"
         style="fill:#ea1a2d;fill-opacity:1;fill-rule:nonzero;stroke:none"
         d="m 1217.77,141.301 -65.19,30.097 c -0.53,0.25 -1.11,0.372 -1.68,0.372 -0.57,0 -1.15,-0.122 -1.68,-0.372 l -32.06,-14.886 -1.12,-0.524 v 1.231 8.48 c 0,2.153 -1.77,3.891 -3.95,3.891 h -26.05 c -2.18,0 -3.95,-1.738 -3.95,-3.891 V 60.5 c 0,-2.1484 1.77,-3.8906 3.95,-3.8906 h 26.05 c 2.18,0 3.95,1.7422 3.95,3.8906 v 58.012 0.5 l 0.45,0.199 34.12,15.848 0.33,0.16 0.34,-0.16 34.37,-15.868 0.45,-0.211 V 118.488 60.5 c 0,-2.1484 1.77,-3.8906 3.95,-3.8906 h 26.05 c 2.18,0 3.95,1.7422 3.95,3.8906 v 77.27 c 0,1.511 -0.89,2.89 -2.28,3.531" /><path
         id="path40"
         style="fill:#ea1a2d;fill-opacity:1;fill-rule:nonzero;stroke:none"
         d="m 1379.84,154.711 h -26.78 c -2.18,0 -3.95,-1.75 -3.95,-3.902 V 60.6914 c 0,-2.1523 1.77,-3.8906 3.95,-3.8906 h 26.78 c 2.18,0 3.95,1.7383 3.95,3.8906 v 90.1176 c 0,2.152 -1.77,3.902 -3.95,3.902" /><path
         id="path42"
         style="fill:#ea1a2d;fill-opacity:1;fill-rule:nonzero;stroke:none"
         d="m 1366.35,207.398 c -11.4,0 -19.99,-8.457 -19.99,-19.687 0,-11.231 8.59,-19.699 19.99,-19.699 11.39,0 19.99,8.468 19.99,19.699 0,11.23 -8.6,19.687 -19.99,19.687" /><path
         id="path44"
         style="fill:#ea1a2d;fill-opacity:1;fill-rule:nonzero;stroke:none"
         d="m 1580.75,157.219 c -11.2,0 -19.35,-3.348 -24.95,-10.239 l -1.4,-1.742 v 2.223 48.43 c 0,2.148 -1.77,3.89 -3.96,3.89 h -26.78 c -2.18,0 -3.95,-1.742 -3.95,-3.89 V 60.5 c 0,-2.1602 1.77,-3.8984 3.95,-3.8984 h 26.78 c 2.19,0 3.96,1.7382 3.96,3.8984 v 48.629 c 0,14.641 9.38,16.23 13.41,16.23 11.77,0 13.52,-10.05 13.52,-16.027 V 60.5 c 0,-2.1602 1.77,-3.8984 3.95,-3.8984 h 26.78 c 2.19,0 3.96,1.7382 3.96,3.8984 v 60.07 c 0,10.621 -3.36,19.75 -9.71,26.399 -6.42,6.703 -15.26,10.25 -25.56,10.25" /><path
         id="path46"
         style="fill:#ea1a2d;fill-opacity:1;fill-rule:nonzero;stroke:none"
         d="m 1693.86,157.219 c -10.51,0 -18.79,-3.168 -25.31,-9.699 l -1.34,-1.348 v 1.898 47.61 c 0,2.16 -1.77,3.902 -3.95,3.902 h -26.79 c -2.18,0 -3.95,-1.742 -3.95,-3.902 V 60.5 c 0,-2.1602 1.77,-3.8984 3.95,-3.8984 h 25.26 c 2.18,0 3.95,1.7382 3.95,3.8984 v 4.0508 2.0508 l 1.37,-1.5313 c 6.78,-7.4492 15.59,-11.082 26.92,-11.082 25.73,0 45.14,22.2422 45.14,51.7227 0,29.371 -19.45,51.508 -45.25,51.508 m 9.45,-51.61 c 0,-11.7496 -7.69,-19.9488 -18.72,-19.9488 -11.01,0 -18.71,8.1992 -18.71,19.9488 0,11.743 7.7,19.95 18.71,19.95 11.03,0 18.72,-8.207 18.72,-19.95" /><path
         id="path48"
         style="fill:#ea1a2d;fill-opacity:1;fill-rule:nonzero;stroke:none"
         d="m 1805.02,157.219 c -31.41,0 -54.22,-21.699 -54.22,-51.61 0,-29.9098 22.81,-51.6207 54.22,-51.6207 31.41,0 54.21,21.7109 54.21,51.6207 0,29.911 -22.8,51.61 -54.21,51.61 m 18.71,-51.61 c 0,-11.7496 -7.7,-19.9488 -18.71,-19.9488 -11.02,0 -18.72,8.1992 -18.72,19.9488 0,11.743 7.7,19.95 18.72,19.95 11.01,0 18.71,-8.207 18.71,-19.95" /><path
         id="path50"
         style="fill:#ea1a2d;fill-opacity:1;fill-rule:nonzero;stroke:none"
         d="m 1503.17,67.3008 v 83.3202 c 0,2.149 -1.77,3.891 -3.95,3.891 h -25.35 c -2.18,0 -3.95,-1.742 -3.95,-3.891 v -4.062 -2.137 l -1.39,1.637 c -6.4,7.511 -14.99,11.171 -26.29,11.171 -12.94,0 -24.22,-4.96 -32.61,-14.32 -8.08,-9.019 -12.54,-21.34 -12.54,-34.699 0,-13.3399 4.46,-25.6602 12.54,-34.6797 8.39,-9.3711 19.67,-14.3204 32.61,-14.3204 10.92,0 19.36,3.461 25.79,10.5899 l 1.38,1.5195 v -2.0508 -1.9882 -4.2618 c -0.02,-0.1406 -0.02,-0.2812 -0.02,-0.2812 v -6.3399 c 0,-12.6367 -10.43,-22.9101 -23.25,-22.9101 -7.49,0 -14.57,3.6133 -18.95,9.6523 -0.77,1.0508 -1.98,1.6211 -3.22,1.6211 -0.57,0 -1.15,-0.1133 -1.7,-0.3711 l -23.58,-11.0508 c -1.01,-0.4687 -1.76,-1.3281 -2.09,-2.3789 -0.33,-1.039 -0.18,-2.1718 0.38,-3.1211 10.25,-17.0703 29.08,-27.667925 49.16,-27.667925 31.47,0 57.07,25.218725 57.07,56.226525 v 6.211 z m -52.07,18.3594 c -11.02,0 -18.72,8.1992 -18.72,19.9488 0,11.75 7.7,19.95 18.72,19.95 11.02,0 18.72,-8.2 18.72,-19.95 0,-11.7496 -7.7,-19.9488 -18.72,-19.9488" /><path
         id="path52"
         style="fill:#ea1a2d;fill-opacity:1;fill-rule:nonzero;stroke:none"
         d="m 1936.12,156.941 c -1.6,0.188 -3.14,0.289 -4.57,0.289 -12.37,0 -20.67,-3.941 -26.12,-12.39 l -1.46,-2.258 v 2.68 5.359 c 0,2.149 -1.76,3.891 -3.95,3.891 h -25.14 c -2.19,0 -3.95,-1.742 -3.95,-3.891 V 60.4883 c 0,-2.1367 1.76,-3.8867 3.95,-3.8867 h 26.87 c 2.19,0 3.95,1.75 3.95,3.8867 v 48.6327 c 0,10.539 5.24,15.231 16.99,15.231 3.25,0 6.85,-0.372 10.72,-1.114 0.25,-0.047 0.5,-0.066 0.75,-0.066 0.87,0 1.73,0.277 2.43,0.816 0.89,0.692 1.45,1.731 1.51,2.852 l 1.48,26.012 c 0.12,2.046 -1.4,3.839 -3.46,4.089" /><path
         id="path54"
         style="fill:#ea1a2d;fill-opacity:1;fill-rule:nonzero;stroke:none"
         d="m 1988.32,199.582 h -26.78 c -2.19,0 -3.95,-1.75 -3.95,-3.891 V 60.4883 c 0,-2.1367 1.76,-3.8789 3.95,-3.8789 h 26.78 c 2.18,0 3.95,1.7422 3.95,3.8789 V 195.691 c 0,2.141 -1.77,3.891 -3.95,3.891" /><path
         id="path56"
         style="fill:#ea1a2d;fill-opacity:1;fill-rule:nonzero;stroke:none"
         d="m 2088.81,113.16 c 0,-12.629 -8.17,-22.6795 -20.59,-22.6795 -12.82,0 -22.04,10.2815 -22.04,22.9105 v 37.23 c 0,2.149 -1.77,3.891 -3.95,3.891 h -25.92 c -2.18,0 -3.95,-1.742 -3.95,-3.891 v -37.23 c 0,-31.0121 25.6,-56.2426 57.07,-56.2426 6.17,0 12.34,1.0313 18.33,3.0625 l 1.05,0.3477 v -1.0898 -1.2071 c 0,-13.75 -11.36,-24.9414 -25.31,-24.9414 -8.29,0 -16.07,4.0195 -20.83,10.75 -0.76,1.0781 -1.98,1.6797 -3.24,1.6797 -0.57,0 -1.15,-0.1211 -1.7,-0.3789 L 2014.17,34.332 c -1.01,-0.4726 -1.76,-1.332 -2.09,-2.3711 -0.32,-1.039 -0.19,-2.1718 0.37,-3.1211 C 2023.05,11.0391 2042.61,0 2063.5,0 c 15.4,0 30,5.83203 41.09,16.4297 11.08,10.5703 17.45,24.7109 17.98,39.8203 l 0.05,1.4414 v 0.1289 92.8007 c 0,2.149 -1.76,3.891 -3.95,3.891 h -25.91 c -2.18,0 -3.95,-1.742 -3.95,-3.891" /><path
         id="path58"
         style="fill:#ea1a2d;fill-opacity:1;fill-rule:nonzero;stroke:none"
         d="m 1284.99,157.422 c -15.11,0 -28.04,-5.051 -37.41,-14.59 -9.33,-9.512 -14.26,-22.633 -14.26,-37.934 0,-14.9097 5.05,-27.6089 14.59,-36.7378 9.56,-9.1407 22.88,-13.9688 38.5,-13.9688 16.58,0 30.79,4.5899 41.11,13.2695 0.89,0.75 1.39,1.8399 1.38,2.9805 -0.01,1.1484 -0.52,2.2383 -1.42,2.9688 l -17.73,14.6093 c -0.73,0.6094 -1.63,0.9102 -2.54,0.9102 -0.83,0 -1.66,-0.2578 -2.37,-0.7813 -5.05,-3.75 -10.97,-5.8086 -16.7,-5.8086 -9.99,0 -16.34,4.2422 -18.88,12.6016 l -0.31,1 h 1.06 61.62 c 2.06,0 3.78,1.5781 3.93,3.6094 0.1,1.3712 0.27,3.9802 0.27,6.2502 0,15 -4.9,27.89 -14.17,37.281 -9.25,9.379 -21.94,14.34 -36.67,14.34 m 18.63,-41.781 h -0.87 -34.98 -0.88 l 0.09,0.859 c 0.95,9.281 8.81,16.27 18.28,16.27 9.48,0 17.34,-6.989 18.28,-16.27 l 0.08,-0.859" /><path
         id="path60"
         style="fill:#ea1a2d;fill-opacity:1;fill-rule:nonzero;stroke:none"
         d="m 978.004,56.8398 v 11.5821 c -8.27,-9.7227 -19.641,-14.2735 -32.867,-14.2735 -29.141,0 -51.879,22.5313 -51.879,51.2616 0,29.141 23.156,51.461 51.879,51.461 13.226,0 24.386,-4.75 32.867,-14.473 V 155.02 H 997.84 V 56.8398 Z M 945.137,138.07 c -18.399,0 -32.242,-14.468 -32.242,-32.66 0,-18.3905 13.843,-32.66 32.242,-32.66 18.804,0 32.449,14.8906 32.449,32.66 0,17.781 -13.844,32.66 -32.449,32.66" /><path
         id="path62"
         style="fill:#ea1a2d;fill-opacity:1;fill-rule:nonzero;stroke:none"
         d="m 2292.86,78.5391 c -9.1,-14.668 -25.63,-24.3907 -44.23,-24.3907 -28.32,0 -51.46,22.9532 -51.46,51.2616 0,28.11 22.74,51.469 51.46,51.469 18.4,0 34.73,-9.719 43.82,-24.18 l -16.74,-9.519 c -5.58,8.902 -15.71,14.879 -27.08,14.879 -17.98,0 -31.82,-15.289 -31.82,-32.848 0,-17.5821 14.04,-32.4493 32.23,-32.4493 11.79,0 21.7,6.1992 27.29,15.5 l 16.53,-9.7226" /><path
         id="path64"
         style="fill:#ea1a2d;fill-opacity:1;fill-rule:nonzero;stroke:none"
         d="m 2356.71,54.1484 c -28.3,0 -51.46,22.9532 -51.46,51.2616 0,28.11 22.74,51.469 51.46,51.469 28.53,0 51.88,-23.149 51.88,-51.469 0,-28.1092 -23.35,-51.2616 -51.88,-51.2616 m 0.21,83.9106 c -18.39,0 -32.03,-15.489 -32.03,-32.848 0,-17.5821 14.04,-32.461 32.03,-32.461 18.2,0 32.04,15.3008 32.04,32.871 0,17.77 -14.26,32.438 -32.04,32.438" /><path
         id="path66"
         style="fill:#ea1a2d;fill-opacity:1;fill-rule:nonzero;stroke:none"
         d="m 2559.87,56.8398 v 51.4612 c 0,19.429 -4.96,29.769 -20.26,29.769 -15.49,0 -23.56,-10.34 -23.56,-31.211 V 56.8398 h -20.04 v 51.4612 c 0,19.64 -4.97,29.769 -20.26,29.769 -15.51,0 -23.56,-10.55 -23.56,-31.211 V 56.8398 h -19.85 V 155.02 h 19.85 v -10.551 c 7.44,8.269 15.08,12.402 26.87,12.402 13.43,0 25.42,-5.371 31.41,-18.18 9.51,14.469 21.29,18.18 32.66,18.18 21.91,0 36.58,-13.633 36.58,-44.43 V 56.8398 h -19.84" /><path
         id="path68"
         style="fill:#ea1a2d;fill-opacity:1;fill-rule:nonzero;stroke:none"
         d="M 2609.66,4.55078 V 155.02 h 19.83 v -12.61 c 8.28,9.719 19.65,14.469 32.87,14.469 28.74,0 51.88,-22.328 51.88,-51.469 0,-28.7303 -22.74,-51.2616 -51.88,-51.2616 -13.22,0 -24.59,4.5508 -32.87,14.2618 V 4.55078 Z m 52.5,68.19922 c 18.59,0 32.44,14.2695 32.44,32.66 0,18.192 -13.85,32.649 -32.24,32.649 -18.39,0 -32.24,-14.457 -32.24,-32.649 0,-17.7811 13.02,-32.66 32.04,-32.66" /><path
         id="path70"
         style="fill:#ea1a2d;fill-opacity:1;fill-rule:nonzero;stroke:none"
         d="m 2814.47,56.8398 v 11.5821 c -8.26,-9.7227 -19.64,-14.2735 -32.87,-14.2735 -29.14,0 -51.88,22.5313 -51.88,51.2616 0,29.141 23.16,51.461 51.88,51.461 13.23,0 24.39,-4.75 32.87,-14.473 v 12.622 h 19.84 V 56.8398 Z M 2781.6,138.07 c -18.4,0 -32.24,-14.468 -32.24,-32.66 0,-18.3905 13.84,-32.66 32.24,-32.66 18.81,0 32.45,14.8906 32.45,32.66 0,17.781 -13.84,32.66 -32.45,32.66" /><path
         id="path72"
         style="fill:#ea1a2d;fill-opacity:1;fill-rule:nonzero;stroke:none"
         d="m 2935.16,56.8398 v 51.4612 c 0,19.64 -7.66,29.769 -23.98,29.769 -16.95,0 -25.02,-10.949 -25.02,-31.211 V 56.8398 h -19.83 V 155.02 h 19.83 v -10.551 c 6.63,7.441 14.68,12.402 28.53,12.402 23.35,0 40.51,-13.633 40.51,-44.43 V 56.8398 h -20.04" /><path
         id="path74"
         style="fill:#ea1a2d;fill-opacity:1;fill-rule:nonzero;stroke:none"
         d="m 2992.8,4.55078 17.98,50.42972 -40.1,100.0395 h 21.71 l 28.1,-73.7895 26.46,73.7895 h 19.85 L 3012.43,4.55078 h -19.63" /><path
         id="path76"
         style="fill:#ea1a2d;fill-opacity:1;fill-rule:nonzero;stroke:none"
         d="m 2141.24,145.359 h 1.04 c 1.22,0 2.21,0.403 2.21,1.391 0,0.871 -0.64,1.449 -2.03,1.449 -0.59,0 -0.99,-0.058 -1.22,-0.117 z m -0.06,-5.339 h -2.21 v 9.46 c 0.87,0.168 2.09,0.352 3.66,0.352 1.8,0 2.61,-0.293 3.31,-0.762 0.52,-0.398 0.92,-1.16 0.92,-2.031 0,-1.098 -0.81,-1.91 -1.97,-2.258 v -0.121 c 0.93,-0.289 1.45,-1.039 1.74,-2.32 0.3,-1.449 0.47,-2.031 0.7,-2.32 h -2.38 c -0.29,0.351 -0.46,1.16 -0.76,2.261 -0.17,1.051 -0.75,1.508 -1.97,1.508 h -1.04 z m 1.45,12.531 c -4.18,0 -7.31,-3.422 -7.31,-7.602 0,-4.23 3.13,-7.597 7.42,-7.597 4.19,-0.063 7.26,3.367 7.26,7.597 0,4.18 -3.07,7.602 -7.31,7.602 z m 0.11,1.918 c 5.46,0 9.69,-4.239 9.69,-9.52 0,-5.39 -4.23,-9.57 -9.74,-9.57 -5.46,0 -9.81,4.18 -9.81,9.57 0,5.281 4.35,9.52 9.81,9.52 h 0.05" /><path
         id="path78"
         style="fill:#ffffff;fill-opacity:1;fill-rule:nonzero;stroke:none"
         d="m 2371.23,1060.79 -21.73,53.05 -21.73,-53.05 z m -37.86,96.28 h 33.18 l 70.12,-164.761 h -37.63 L 2384.09,1029 h -69.18 l -14.96,-36.691 h -36.69 l 70.11,164.761" /><path
         id="path80"
         style="fill:#ffffff;fill-opacity:1;fill-rule:nonzero;stroke:none"
         d="m 2448.14,1062.42 v 93.48 h 35.99 v -92.55 c 0,-26.64 13.32,-40.43 35.28,-40.43 21.97,0 35.29,13.32 35.29,39.27 v 93.71 h 36 v -92.32 c 0,-49.54 -27.82,-73.85 -71.75,-73.85 -43.94,0 -70.81,24.54 -70.81,72.69" /><path
         id="path82"
         style="fill:#ffffff;fill-opacity:1;fill-rule:nonzero;stroke:none"
         d="m 2669.48,1122.72 h -49.78 v 33.18 h 135.55 v -33.18 h -49.79 V 992.309 h -35.98 v 130.411" /><path
         id="path84"
         style="fill:#ffffff;fill-opacity:1;fill-rule:nonzero;stroke:none"
         d="m 2902.97,1073.64 v 0.47 c 0,28.04 -20.56,51.41 -49.54,51.41 -28.98,0 -49.08,-22.91 -49.08,-50.95 v -0.46 c 0,-28.05 20.57,-51.42 49.55,-51.42 28.98,0 49.07,22.9 49.07,50.95 z m -136.25,0 v 0.47 c 0,46.5 36.69,84.6 87.18,84.6 50.48,0 86.7,-37.63 86.7,-84.14 v -0.46 c 0,-46.52 -36.69,-84.61 -87.17,-84.61 -50.49,0 -86.71,37.63 -86.71,84.14" /><path
         id="path86"
         style="fill:#ffffff;fill-opacity:1;fill-rule:nonzero;stroke:none"
         d="m 3046.48,1073.64 v 0.47 c 0,46.5 36.23,84.6 85.78,84.6 29.45,0 47.21,-7.95 64.27,-22.44 l -22.67,-27.34 c -12.62,10.52 -23.83,16.59 -42.77,16.59 -26.17,0 -46.98,-23.14 -46.98,-50.95 v -0.46 c 0,-29.92 20.58,-51.89 49.55,-51.89 13.09,0 24.77,3.28 33.89,9.82 v 23.37 h -36.23 v 31.08 h 71.05 v -71.04 c -16.82,-14.26 -39.96,-25.95 -69.88,-25.95 -50.94,0 -86.01,35.77 -86.01,84.14" /><path
         id="path88"
         style="fill:#ffffff;fill-opacity:1;fill-rule:nonzero;stroke:none"
         d="m 3240.46,1155.9 h 36 v -130.87 h 81.57 V 992.309 H 3240.46 V 1155.9" /><path
         id="path90"
         style="fill:#ffffff;fill-opacity:1;fill-rule:nonzero;stroke:none"
         d="m 3489.26,1060.79 -21.74,53.05 -21.73,-53.05 z m -37.87,96.28 h 33.19 l 70.11,-164.761 h -37.63 L 3502.11,1029 h -69.18 l -14.96,-36.691 h -36.69 l 70.11,164.761" /><path
         id="path92"
         style="fill:#ffffff;fill-opacity:1;fill-rule:nonzero;stroke:none"
         d="m 3575.68,1016.15 21.26,25.46 c 14.73,-12.15 30.15,-19.86 48.84,-19.86 14.74,0 23.61,5.84 23.61,15.43 v 0.47 c 0,9.12 -5.61,13.78 -32.95,20.8 -32.96,8.41 -54.22,17.53 -54.22,50.01 v 0.47 c 0,29.68 23.84,49.31 57.25,49.31 23.84,0 44.17,-7.48 60.77,-20.79 l -18.69,-27.12 c -14.49,10.05 -28.75,16.13 -42.54,16.13 -13.79,0 -21.04,-6.31 -21.04,-14.26 v -0.47 c 0,-10.75 7.01,-14.25 35.3,-21.5 33.18,-8.65 51.88,-20.56 51.88,-49.08 v -0.46 c 0,-32.49 -24.77,-50.725 -60.06,-50.725 -24.78,0 -49.79,8.648 -69.41,26.185" /><path
         id="path94"
         style="fill:#ffffff;fill-opacity:1;fill-rule:nonzero;stroke:none"
         d="m 3732.22,1016.15 21.27,25.46 c 14.72,-12.15 30.15,-19.86 48.85,-19.86 14.72,0 23.59,5.84 23.59,15.43 v 0.47 c 0,9.12 -5.6,13.78 -32.94,20.8 -32.96,8.41 -54.23,17.53 -54.23,50.01 v 0.47 c 0,29.68 23.84,49.31 57.26,49.31 23.84,0 44.17,-7.48 60.77,-20.79 l -18.7,-27.12 c -14.49,10.05 -28.74,16.13 -42.54,16.13 -13.79,0 -21.03,-6.31 -21.03,-14.26 v -0.47 c 0,-10.75 7.01,-14.25 35.29,-21.5 33.19,-8.65 51.89,-20.56 51.89,-49.08 v -0.46 c 0,-32.49 -24.78,-50.725 -60.06,-50.725 -24.78,0 -49.79,8.648 -69.42,26.185" /><path
         id="path96"
         style="fill:#28307c;fill-opacity:1;fill-rule:nonzero;stroke:none"
         d="m 1215.98,923.844 h -102.51 c -7.26,0 -11.8,7.867 -8.17,14.156 l 162.25,280.55 c 2.08,3.6 5.93,5.81 10.08,5.81 h 107.81 c 4.74,0 7.7,-5.13 5.33,-9.23 L 1225.48,929.324 c -1.96,-3.39 -5.58,-5.48 -9.5,-5.48" /><path
         id="path98"
         style="fill:#ea1a2d;fill-opacity:1;fill-rule:nonzero;stroke:none"
         d="m 1395.29,923.844 h -102.84 c -7.27,0 -11.81,7.867 -8.17,14.156 l 162.1,280.29 c 2.17,3.76 6.19,6.07 10.53,6.07 h 107.51 c 4.74,0 7.7,-5.13 5.33,-9.23 L 1404.3,929.039 c -1.86,-3.215 -5.29,-5.195 -9.01,-5.195" /><path
         id="path100"
         style="fill:#ea1a2d;fill-opacity:1;fill-rule:nonzero;stroke:none"
         d="m 4003.18,496.438 h 5.26 c 5.99,0 10.96,2.175 10.96,7.769 0,3.938 -2.8,7.996 -10.96,7.996 -2.41,0 -4.06,-0.23 -5.26,-0.461 z m 0,-25.059 h -7.3 v 45.223 c 3.77,0.562 7.42,1.14 12.91,1.14 6.84,0 11.36,-1.484 14.14,-3.363 2.69,-2.063 4.12,-5.207 4.12,-9.481 0,-5.937 -4,-9.546 -8.85,-11.031 v -0.332 c 3.94,-0.691 6.63,-4.285 7.6,-11.027 1.03,-7.074 2.16,-9.762 2.79,-11.129 h -7.54 c -1.08,1.367 -2.16,5.422 -3.13,11.476 -1.04,5.77 -3.89,7.993 -9.77,7.993 h -4.97 z m 7.6,58.004 c -18.04,0 -32.5,-15.465 -32.5,-34.363 0,-19.36 14.46,-34.543 32.61,-34.543 18.16,-0.231 32.6,15.183 32.6,34.312 0,19.129 -14.44,34.594 -32.6,34.594 z m 0.11,6.23 c 22.15,0 39.91,-18.101 39.91,-40.593 0,-23.071 -17.76,-40.942 -40.02,-40.942 -22.21,0 -40.31,17.871 -40.31,40.942 0,22.492 18.1,40.593 40.31,40.593 h 0.11" /></g></g></svg>